# xmcd
#
# Track frame offsets:
# 150
# 21935
# 51220
# 71387
# 91280
# 114425
# 139064
# 158839
# 180945
# 202163
# 226386
# 246977
# 266867
#
# Disc length: 3823 seconds
#
#
# Revision: 0
# Processed by: cddbd v1.5.2PL0 Copyright (c) Steve Scherf et al.
# Submitted via: FreeRIP 2.942 
#
DISCID=b40eed0d
DTITLE=Gerald Levert - Love and Consequences
DYEAR=1998
DGENRE=R&B
TTITLE0=No Sense
TTITLE1=Thinkin' Bout It
TTITLE2=Point The Finger
TTITLE3=Breaking My Heart
TTITLE4=That's The Way I Feel About You
TTITLE5=It's Your Turn
TTITLE6=No I'm Not The Blame
TTITLE7=No Man's Land
TTITLE8=Men Like Us
TTITLE9=Taking Everything
TTITLE10=What About Me
TTITLE11=Definition Of A Man
TTITLE12=Humble Me
EXTD=
EXTT0=
EXTT1=
EXTT2=
EXTT3=
EXTT4=
EXTT5=
EXTT6=
EXTT7=
EXTT8=
EXTT9=
EXTT10=
EXTT11=
EXTT12=
PLAYORDER=
